<svg xmlns="http://www.w3.org/2000/svg" viewBox="0 0 32 32" width="32" height="32">
  <rect width="32" height="32" rx="7" fill="#131210"/>
  <g
    fill="none"
    stroke="#61D19D"
    stroke-width="2"
    stroke-linecap="round"
    stroke-linejoin="round"
    transform="translate(4 4)"
  >
    <path d="M9.937 15.5A2 2 0 0 0 8.5 14.063l-6.135-1.582a.5.5 0 0 1 0-.962L8.5 9.936A2 2 0 0 0 9.937 8.5l1.582-6.135a.5.5 0 0 1 .963 0L14.063 8.5A2 2 0 0 0 15.5 9.937l6.135 1.582a.5.5 0 0 1 0 .962L15.5 14.063a2 2 0 0 0-1.437 1.437l-1.582 6.135a.5.5 0 0 1-.963 0z"/>
    <path d="M20 3v4"/>
    <path d="M22 5h-4"/>
    <path d="M4 17v2"/>
    <path d="M5 18H3"/>
  </g>
</svg>
